<mxfile host="app.diagrams.net" agent="Mozilla/5.0 (Windows NT 10.0; Win64; x64) AppleWebKit/537.36 (KHTML, like Gecko) Chrome/139.0.0.0 Safari/537.36" version="28.1.2">
  <diagram name="Page-1" id="hfyP3UAzftVRQnir5xHV">
    <mxGraphModel dx="2031" dy="677" grid="1" gridSize="10" guides="1" tooltips="1" connect="1" arrows="1" fold="1" page="1" pageScale="1" pageWidth="850" pageHeight="1100" math="0" shadow="0">
      <root>
        <mxCell id="0" />
        <mxCell id="1" parent="0" />
        <mxCell id="EL7aKV-9iKLkWUwx_ZyF-10" value="" style="rounded=0;whiteSpace=wrap;html=1;fillColor=none;" parent="1" vertex="1">
          <mxGeometry x="130" y="413" width="650" height="357" as="geometry" />
        </mxCell>
        <mxCell id="EL7aKV-9iKLkWUwx_ZyF-16" value="" style="rounded=0;whiteSpace=wrap;html=1;fillColor=#dae8fc;strokeColor=#6c8ebf;" parent="1" vertex="1">
          <mxGeometry x="330" y="670" width="200" height="70" as="geometry" />
        </mxCell>
        <mxCell id="EL7aKV-9iKLkWUwx_ZyF-1" value="" style="image;aspect=fixed;perimeter=ellipsePerimeter;html=1;align=center;shadow=0;dashed=0;spacingTop=3;image=img/lib/active_directory/internet_globe.svg;" parent="1" vertex="1">
          <mxGeometry x="400" y="190" width="50" height="50" as="geometry" />
        </mxCell>
        <mxCell id="EL7aKV-9iKLkWUwx_ZyF-2" value="Cloudflare" style="rounded=0;whiteSpace=wrap;html=1;" parent="1" vertex="1">
          <mxGeometry x="365" y="290" width="120" height="60" as="geometry" />
        </mxCell>
        <mxCell id="EL7aKV-9iKLkWUwx_ZyF-3" value="" style="shape=flexArrow;endArrow=classic;html=1;rounded=0;exitX=0.5;exitY=1;exitDx=0;exitDy=0;entryX=0.5;entryY=0;entryDx=0;entryDy=0;" parent="1" source="EL7aKV-9iKLkWUwx_ZyF-1" target="EL7aKV-9iKLkWUwx_ZyF-2" edge="1">
          <mxGeometry width="50" height="50" relative="1" as="geometry">
            <mxPoint x="460" y="530" as="sourcePoint" />
            <mxPoint x="510" y="480" as="targetPoint" />
          </mxGeometry>
        </mxCell>
        <mxCell id="EL7aKV-9iKLkWUwx_ZyF-4" value="REST&lt;br&gt;Get/Push/Put/Delete&lt;br&gt;laravel.jaxonville.com/params&lt;br&gt;api-laravel.jaxonville.com/params" style="text;html=1;align=center;verticalAlign=middle;resizable=0;points=[];autosize=1;strokeColor=none;fillColor=none;" parent="1" vertex="1">
          <mxGeometry x="440" y="220" width="200" height="70" as="geometry" />
        </mxCell>
        <mxCell id="EL7aKV-9iKLkWUwx_ZyF-5" value="Inbound&lt;br&gt;127.0.0.1:80" style="rounded=0;whiteSpace=wrap;html=1;" parent="1" vertex="1">
          <mxGeometry x="365" y="413" width="120" height="37" as="geometry" />
        </mxCell>
        <mxCell id="EL7aKV-9iKLkWUwx_ZyF-6" value="" style="shape=flexArrow;endArrow=classic;html=1;rounded=0;exitX=0.5;exitY=1;exitDx=0;exitDy=0;entryX=0.5;entryY=0;entryDx=0;entryDy=0;" parent="1" source="EL7aKV-9iKLkWUwx_ZyF-2" target="EL7aKV-9iKLkWUwx_ZyF-5" edge="1">
          <mxGeometry width="50" height="50" relative="1" as="geometry">
            <mxPoint x="460" y="420" as="sourcePoint" />
            <mxPoint x="510" y="370" as="targetPoint" />
          </mxGeometry>
        </mxCell>
        <mxCell id="EL7aKV-9iKLkWUwx_ZyF-7" value="Cloudflare Tunnel VPN&lt;br&gt;ZeroAccess &lt;br&gt;(Email Auth, Pin, 1month TTL)" style="text;html=1;align=center;verticalAlign=middle;resizable=0;points=[];autosize=1;strokeColor=none;fillColor=none;" parent="1" vertex="1">
          <mxGeometry x="440" y="353" width="180" height="60" as="geometry" />
        </mxCell>
        <mxCell id="EL7aKV-9iKLkWUwx_ZyF-8" value="" style="outlineConnect=0;dashed=0;verticalLabelPosition=bottom;verticalAlign=top;align=center;html=1;shape=mxgraph.aws3.vpn_connection;fillColor=#F58536;gradientColor=none;" parent="1" vertex="1">
          <mxGeometry x="350" y="359" width="58.5" height="48" as="geometry" />
        </mxCell>
        <mxCell id="EL7aKV-9iKLkWUwx_ZyF-11" value="NGINX&lt;br&gt;Server:&lt;br&gt;{Listen 127.0.0.1:80}&amp;nbsp;" style="rounded=0;whiteSpace=wrap;html=1;" parent="1" vertex="1">
          <mxGeometry x="365" y="480" width="120" height="50" as="geometry" />
        </mxCell>
        <mxCell id="EL7aKV-9iKLkWUwx_ZyF-12" value="" style="shape=flexArrow;endArrow=classic;html=1;rounded=0;exitX=0.5;exitY=1;exitDx=0;exitDy=0;entryX=0.5;entryY=0;entryDx=0;entryDy=0;" parent="1" source="EL7aKV-9iKLkWUwx_ZyF-5" target="EL7aKV-9iKLkWUwx_ZyF-11" edge="1">
          <mxGeometry width="50" height="50" relative="1" as="geometry">
            <mxPoint x="450" y="570" as="sourcePoint" />
            <mxPoint x="500" y="520" as="targetPoint" />
          </mxGeometry>
        </mxCell>
        <mxCell id="EL7aKV-9iKLkWUwx_ZyF-13" value="Laravel Root" style="rounded=0;whiteSpace=wrap;html=1;" parent="1" vertex="1">
          <mxGeometry x="365" y="570" width="120" height="30" as="geometry" />
        </mxCell>
        <mxCell id="EL7aKV-9iKLkWUwx_ZyF-14" value="" style="shape=flexArrow;endArrow=classic;html=1;rounded=0;exitX=0.5;exitY=1;exitDx=0;exitDy=0;entryX=0.5;entryY=0;entryDx=0;entryDy=0;" parent="1" source="EL7aKV-9iKLkWUwx_ZyF-11" target="EL7aKV-9iKLkWUwx_ZyF-13" edge="1">
          <mxGeometry width="50" height="50" relative="1" as="geometry">
            <mxPoint x="250" y="570" as="sourcePoint" />
            <mxPoint x="300" y="520" as="targetPoint" />
          </mxGeometry>
        </mxCell>
        <mxCell id="EL7aKV-9iKLkWUwx_ZyF-21" value="" style="edgeStyle=orthogonalEdgeStyle;rounded=0;orthogonalLoop=1;jettySize=auto;html=1;" parent="1" source="EL7aKV-9iKLkWUwx_ZyF-15" target="EL7aKV-9iKLkWUwx_ZyF-13" edge="1">
          <mxGeometry relative="1" as="geometry" />
        </mxCell>
        <mxCell id="EL7aKV-9iKLkWUwx_ZyF-15" value="/root/public/index.php" style="rounded=0;whiteSpace=wrap;html=1;" parent="1" vertex="1">
          <mxGeometry x="365" y="625" width="120" height="30" as="geometry" />
        </mxCell>
        <mxCell id="EL7aKV-9iKLkWUwx_ZyF-19" value="Server Hardware" style="rounded=0;whiteSpace=wrap;html=1;fillColor=#d5e8d4;strokeColor=#82b366;" parent="1" vertex="1">
          <mxGeometry x="140" y="420" width="120" height="60" as="geometry" />
        </mxCell>
        <mxCell id="EL7aKV-9iKLkWUwx_ZyF-17" value="" style="shape=flexArrow;endArrow=classic;html=1;rounded=0;exitX=0.5;exitY=1;exitDx=0;exitDy=0;entryX=0.5;entryY=0;entryDx=0;entryDy=0;fillColor=default;" parent="1" source="EL7aKV-9iKLkWUwx_ZyF-13" target="EL7aKV-9iKLkWUwx_ZyF-15" edge="1">
          <mxGeometry width="50" height="50" relative="1" as="geometry">
            <mxPoint x="210" y="580" as="sourcePoint" />
            <mxPoint x="260" y="530" as="targetPoint" />
          </mxGeometry>
        </mxCell>
        <mxCell id="EL7aKV-9iKLkWUwx_ZyF-24" value="" style="shape=flexArrow;endArrow=classic;html=1;rounded=0;exitX=0.5;exitY=1;exitDx=0;exitDy=0;entryX=0.5;entryY=0;entryDx=0;entryDy=0;fillColor=default;" parent="1" source="EL7aKV-9iKLkWUwx_ZyF-15" edge="1">
          <mxGeometry width="50" height="50" relative="1" as="geometry">
            <mxPoint x="460" y="760" as="sourcePoint" />
            <mxPoint x="425" y="690" as="targetPoint" />
          </mxGeometry>
        </mxCell>
        <mxCell id="EL7aKV-9iKLkWUwx_ZyF-25" value="" style="rounded=0;whiteSpace=wrap;html=1;fillColor=#dae8fc;strokeColor=#6c8ebf;" parent="1" vertex="1">
          <mxGeometry x="-10" y="890" width="990" height="450" as="geometry" />
        </mxCell>
        <mxCell id="EL7aKV-9iKLkWUwx_ZyF-26" value="Laravel Application" style="rounded=0;whiteSpace=wrap;html=1;" parent="1" vertex="1">
          <mxGeometry x="850" y="900" width="120" height="30" as="geometry" />
        </mxCell>
        <mxCell id="EL7aKV-9iKLkWUwx_ZyF-27" value="Application Instantize" style="rounded=0;whiteSpace=wrap;html=1;" parent="1" vertex="1">
          <mxGeometry x="365" y="700" width="120" height="30" as="geometry" />
        </mxCell>
        <mxCell id="EL7aKV-9iKLkWUwx_ZyF-28" value="/root/public/index.php" style="rounded=0;whiteSpace=wrap;html=1;" parent="1" vertex="1">
          <mxGeometry x="365" y="830" width="120" height="40" as="geometry" />
        </mxCell>
        <mxCell id="EL7aKV-9iKLkWUwx_ZyF-29" value="bootstrap/app.php:&lt;div&gt;Instantize application&lt;br&gt;{Routes, Middleware, Alias}&lt;/div&gt;" style="rounded=0;whiteSpace=wrap;html=1;" parent="1" vertex="1">
          <mxGeometry x="140" y="920" width="150" height="60" as="geometry" />
        </mxCell>
        <mxCell id="EL7aKV-9iKLkWUwx_ZyF-30" value="" style="shape=flexArrow;endArrow=classic;html=1;rounded=0;entryX=0.5;entryY=0;entryDx=0;entryDy=0;exitX=0;exitY=0.5;exitDx=0;exitDy=0;" parent="1" source="EL7aKV-9iKLkWUwx_ZyF-28" target="EL7aKV-9iKLkWUwx_ZyF-29" edge="1">
          <mxGeometry width="50" height="50" relative="1" as="geometry">
            <mxPoint x="150" y="860" as="sourcePoint" />
            <mxPoint x="200" y="810" as="targetPoint" />
            <Array as="points">
              <mxPoint x="215" y="850" />
            </Array>
          </mxGeometry>
        </mxCell>
        <mxCell id="EL7aKV-9iKLkWUwx_ZyF-31" value="handleRequest&lt;br&gt;&lt;span style=&quot;text-align: left;&quot;&gt;&lt;font style=&quot;font-size: 7px;&quot;&gt;Illuminate\Foundation\Http\Kernel&lt;/font&gt;&lt;/span&gt;" style="rounded=0;whiteSpace=wrap;html=1;" parent="1" vertex="1">
          <mxGeometry x="155" y="1010" width="120" height="30" as="geometry" />
        </mxCell>
        <mxCell id="EL7aKV-9iKLkWUwx_ZyF-32" value="handleCommand" style="rounded=0;whiteSpace=wrap;html=1;" parent="1" vertex="1">
          <mxGeometry x="340" y="937.5" width="120" height="25" as="geometry" />
        </mxCell>
        <mxCell id="EL7aKV-9iKLkWUwx_ZyF-33" value="" style="shape=flexArrow;endArrow=classic;html=1;rounded=0;exitX=0.5;exitY=1;exitDx=0;exitDy=0;entryX=0.5;entryY=0;entryDx=0;entryDy=0;" parent="1" source="EL7aKV-9iKLkWUwx_ZyF-29" target="EL7aKV-9iKLkWUwx_ZyF-31" edge="1">
          <mxGeometry width="50" height="50" relative="1" as="geometry">
            <mxPoint x="20" y="1000" as="sourcePoint" />
            <mxPoint x="70" y="950" as="targetPoint" />
          </mxGeometry>
        </mxCell>
        <mxCell id="EL7aKV-9iKLkWUwx_ZyF-34" value="" style="shape=flexArrow;endArrow=classic;html=1;rounded=0;exitX=1;exitY=0.5;exitDx=0;exitDy=0;entryX=0;entryY=0.5;entryDx=0;entryDy=0;" parent="1" source="EL7aKV-9iKLkWUwx_ZyF-29" target="EL7aKV-9iKLkWUwx_ZyF-32" edge="1">
          <mxGeometry width="50" height="50" relative="1" as="geometry">
            <mxPoint x="430" y="1010" as="sourcePoint" />
            <mxPoint x="480" y="960" as="targetPoint" />
          </mxGeometry>
        </mxCell>
        <mxCell id="EL7aKV-9iKLkWUwx_ZyF-35" value="" style="shape=flexArrow;endArrow=classic;html=1;rounded=0;exitX=0.5;exitY=1;exitDx=0;exitDy=0;entryX=0.5;entryY=0;entryDx=0;entryDy=0;" parent="1" source="EL7aKV-9iKLkWUwx_ZyF-31" target="EL7aKV-9iKLkWUwx_ZyF-36" edge="1">
          <mxGeometry width="50" height="50" relative="1" as="geometry">
            <mxPoint x="250" y="1120" as="sourcePoint" />
            <mxPoint x="300" y="1070" as="targetPoint" />
          </mxGeometry>
        </mxCell>
        <mxCell id="EL7aKV-9iKLkWUwx_ZyF-36" value="Instantize array of configs (bootstrappers)&lt;br&gt;{Logging, Environment, Error Handling...}" style="rounded=0;whiteSpace=wrap;html=1;" parent="1" vertex="1">
          <mxGeometry x="101.25" y="1080" width="227.5" height="30" as="geometry" />
        </mxCell>
        <mxCell id="EL7aKV-9iKLkWUwx_ZyF-37" value="Router&lt;br&gt;{routes/web.php}" style="rounded=0;whiteSpace=wrap;html=1;" parent="1" vertex="1">
          <mxGeometry x="155" y="1140" width="120" height="30" as="geometry" />
        </mxCell>
        <mxCell id="EL7aKV-9iKLkWUwx_ZyF-38" value="" style="shape=flexArrow;endArrow=classic;html=1;rounded=0;exitX=0.5;exitY=1;exitDx=0;exitDy=0;entryX=0.5;entryY=0;entryDx=0;entryDy=0;" parent="1" target="EL7aKV-9iKLkWUwx_ZyF-37" edge="1">
          <mxGeometry width="50" height="50" relative="1" as="geometry">
            <mxPoint x="214.71" y="1110" as="sourcePoint" />
            <mxPoint x="214.71" y="1150" as="targetPoint" />
          </mxGeometry>
        </mxCell>
        <mxCell id="EL7aKV-9iKLkWUwx_ZyF-39" value="Middleware/Guards/Hooks" style="rounded=0;whiteSpace=wrap;html=1;" parent="1" vertex="1">
          <mxGeometry x="137.5" y="1210" width="155" height="20" as="geometry" />
        </mxCell>
        <mxCell id="EL7aKV-9iKLkWUwx_ZyF-40" value="" style="shape=flexArrow;endArrow=classic;html=1;rounded=0;exitX=0.5;exitY=1;exitDx=0;exitDy=0;entryX=0.5;entryY=0;entryDx=0;entryDy=0;" parent="1" source="EL7aKV-9iKLkWUwx_ZyF-37" target="EL7aKV-9iKLkWUwx_ZyF-39" edge="1">
          <mxGeometry width="50" height="50" relative="1" as="geometry">
            <mxPoint x="160" y="1250" as="sourcePoint" />
            <mxPoint x="210" y="1200" as="targetPoint" />
          </mxGeometry>
        </mxCell>
        <mxCell id="EL7aKV-9iKLkWUwx_ZyF-41" value="Controller&lt;br&gt;{/app/http/controllers/controller.php}" style="rounded=0;whiteSpace=wrap;html=1;" parent="1" vertex="1">
          <mxGeometry x="110" y="1270" width="210" height="30" as="geometry" />
        </mxCell>
        <mxCell id="EL7aKV-9iKLkWUwx_ZyF-43" value="" style="shape=flexArrow;endArrow=classic;html=1;rounded=0;exitX=0.5;exitY=1;exitDx=0;exitDy=0;entryX=0.5;entryY=0;entryDx=0;entryDy=0;" parent="1" source="EL7aKV-9iKLkWUwx_ZyF-39" target="EL7aKV-9iKLkWUwx_ZyF-41" edge="1">
          <mxGeometry width="50" height="50" relative="1" as="geometry">
            <mxPoint x="214.71" y="1210" as="sourcePoint" />
            <mxPoint x="214.71" y="1240" as="targetPoint" />
          </mxGeometry>
        </mxCell>
        <mxCell id="EL7aKV-9iKLkWUwx_ZyF-45" value="" style="shape=flexArrow;endArrow=classic;html=1;rounded=0;exitX=0.5;exitY=1;exitDx=0;exitDy=0;entryX=0.081;entryY=0.822;entryDx=0;entryDy=0;entryPerimeter=0;" parent="1" source="EL7aKV-9iKLkWUwx_ZyF-41" target="EL7aKV-9iKLkWUwx_ZyF-25" edge="1">
          <mxGeometry width="50" height="50" relative="1" as="geometry">
            <mxPoint x="70" y="1230" as="sourcePoint" />
            <mxPoint x="120" y="1180" as="targetPoint" />
            <Array as="points">
              <mxPoint x="215" y="1320" />
              <mxPoint x="70" y="1320" />
            </Array>
          </mxGeometry>
        </mxCell>
        <mxCell id="EL7aKV-9iKLkWUwx_ZyF-46" value="Return" style="rounded=0;whiteSpace=wrap;html=1;" parent="1" vertex="1">
          <mxGeometry x="40" y="1230" width="70" height="30" as="geometry" />
        </mxCell>
        <mxCell id="PO92Ll_P-s0k6DOYzhUS-1" value="Artisan&lt;br&gt;{/routes/console.php}" style="rounded=0;whiteSpace=wrap;html=1;" vertex="1" parent="1">
          <mxGeometry x="340" y="1010" width="120" height="30" as="geometry" />
        </mxCell>
        <mxCell id="PO92Ll_P-s0k6DOYzhUS-2" value="" style="shape=flexArrow;endArrow=classic;html=1;rounded=0;exitX=0.5;exitY=1;exitDx=0;exitDy=0;entryX=0.5;entryY=0;entryDx=0;entryDy=0;" edge="1" parent="1" source="EL7aKV-9iKLkWUwx_ZyF-32" target="PO92Ll_P-s0k6DOYzhUS-1">
          <mxGeometry width="50" height="50" relative="1" as="geometry">
            <mxPoint x="389.71000000000004" y="962.5" as="sourcePoint" />
            <mxPoint x="390" y="1010" as="targetPoint" />
          </mxGeometry>
        </mxCell>
        <mxCell id="PO92Ll_P-s0k6DOYzhUS-3" value="" style="shape=flexArrow;endArrow=classic;html=1;rounded=0;exitX=0.5;exitY=1;exitDx=0;exitDy=0;entryX=0.5;entryY=0;entryDx=0;entryDy=0;" edge="1" parent="1" source="PO92Ll_P-s0k6DOYzhUS-1" target="PO92Ll_P-s0k6DOYzhUS-4">
          <mxGeometry width="50" height="50" relative="1" as="geometry">
            <mxPoint x="400" y="1100" as="sourcePoint" />
            <mxPoint x="450" y="1050" as="targetPoint" />
          </mxGeometry>
        </mxCell>
        <mxCell id="PO92Ll_P-s0k6DOYzhUS-4" value="Class/Inline Command" style="rounded=0;whiteSpace=wrap;html=1;" vertex="1" parent="1">
          <mxGeometry x="335" y="1080" width="130" height="30" as="geometry" />
        </mxCell>
        <mxCell id="PO92Ll_P-s0k6DOYzhUS-5" value="" style="shape=flexArrow;endArrow=classic;html=1;rounded=0;exitX=0.5;exitY=1;exitDx=0;exitDy=0;" edge="1" parent="1" source="PO92Ll_P-s0k6DOYzhUS-4">
          <mxGeometry width="50" height="50" relative="1" as="geometry">
            <mxPoint x="400" y="1170" as="sourcePoint" />
            <mxPoint x="220" y="1320" as="targetPoint" />
            <Array as="points">
              <mxPoint x="400" y="1320" />
            </Array>
          </mxGeometry>
        </mxCell>
      </root>
    </mxGraphModel>
  </diagram>
</mxfile>
